# xmcd
#
# Track frame offsets: 
#        150
#        11180
#        25695
#        38820
#        49020
#        61095
#        69047
#        77259
#        87421
#        97658
#        103363
#        107093
#        117818
#        122060
#        131022
#        139722
#        149284
#        157909
#        167059
#        177934
#
# Disc length: 2494 seconds
#
# Revision: 0
# Processed by: cddbd v1.5.2PL0 Copyright (c) Steve Scherf et al.
# Submitted via: ExactAudioCopy v0.99pb5
#
DISCID=fa09bc14
DTITLE=Loretta Lynn CD2 - Greats
DYEAR=1900
DGENRE=Country
TTITLE0=Hey Loretta
TTITLE1=Coal Miner's Daughter
TTITLE2=Let your Love Flow
TTITLE3=You're Looking At Country
TTITLE4=Me and bobby mcgee medley
TTITLE5=one's on the way
TTITLE6=the pill
TTITLE7=i fall to pieces
TTITLE8=somebody someware medley
TTITLE9=i fall to pieces
TTITLE10=walkin after midnight
TTITLE11=crazy medley
TTITLE12=back in babys arms
TTITLE13=she's got you
TTITLE14=they dont make em like my daddy
TTITLE15=you aint woman enough
TTITLE16=weve come a long way baby
TTITLE17=your squan is on the warpath
TTITLE18=spring fever
TTITLE19=fist city
EXTD=
EXTT0=
EXTT1=
EXTT2=
EXTT3=
EXTT4=
EXTT5=
EXTT6=
EXTT7=
EXTT8=
EXTT9=
EXTT10=
EXTT11=
EXTT12=
EXTT13=
EXTT14=
EXTT15=
EXTT16=
EXTT17=
EXTT18=
EXTT19=
PLAYORDER=
